<?xml version="1.0" standalone="no"?>
<!DOCTYPE svg PUBLIC "-//W3C//DTD SVG 20010904//EN"
 "http://www.w3.org/TR/2001/REC-SVG-20010904/DTD/svg10.dtd">
<svg version="1.0" xmlns="http://www.w3.org/2000/svg"
 width="1967.970377pt" height="2639.729865pt" viewBox="0 0 1967.970377 2639.729865"
 preserveAspectRatio="xMidYMid meet">
<metadata>
Created by Potrace Professional 1.1m
</metadata>
<g transform="translate(-0.514811,2639.850839) rotate(-360.00) scale(0.095238,-0.095238)"
fill="#000000" stroke="none">
<path d="M13209 27705 c-120 -45 -217 -112 -398 -274 -441 -393 -1026 -1108
-1533 -1874 -430 -649 -771 -1287 -998 -1869 l-60 -152 -78 -2 c-1328 -38
-2690 -491 -3779 -1258 -69 -49 -224 -144 -344 -212 -120 -67 -313 -182 -429
-255 l-211 -134 -219 -6 c-481 -15 -862 -79 -1296 -220 -1289 -416 -2457
-1475 -3210 -2911 -333 -636 -546 -1268 -629 -1869 -26 -189 -26 -580 0 -714
67 -347 234 -632 563 -961 213 -214 479 -418 762 -587 l127 -75 7 -244 c42
-1422 432 -2836 1121 -4057 529 -939 1210 -1765 2015 -2445 61 -51 109 -96
108 -101 -1 -4 -29 -51 -61 -104 -199 -328 -331 -702 -390 -1107 -26 -178 -26
-574 0 -738 106 -676 509 -1049 1273 -1178 373 -63 768 -78 1821 -71 907 7
1051 15 1407 77 534 94 894 325 1086 697 53 103 112 271 131 378 l13 68 309 0
309 0 11 -57 c85 -432 312 -734 699 -928 154 -77 451 -154 729 -190 154 -19
386 -37 479 -37 37 0 67 -4 67 -8 0 -5 -18 -56 -39 -114 l-38 -106 -2400 -423
-2399 -424 -74 83 c-539 611 -1113 929 -1582 876 -127 -14 -204 -35 -313 -85
-215 -99 -401 -270 -570 -523 -335 -500 -335 -984 0 -1439 65 -89 244 -272
318 -325 l49 -35 -62 -84 c-198 -266 -277 -518 -236 -752 31 -181 100 -307
252 -459 175 -176 483 -349 755 -425 723 -202 1306 201 1649 1139 32 85 61
159 66 163 9 8 4913 1071 4940 1071 9 0 47 -38 84 -86 91 -118 289 -320 397
-406 449 -355 889 -428 1319 -217 256 126 488 344 592 557 58 120 77 200 78
331 0 258 -113 481 -381 746 -79 77 -170 160 -203 183 -33 23 -60 45 -60 48 0
3 27 26 60 52 268 210 431 455 452 682 l7 79 37 9 c281 73 522 202 689 368
129 129 224 284 286 465 75 217 102 436 93 743 -9 304 -50 540 -139 809 -75
229 -198 491 -305 650 l-34 51 135 114 c914 773 1668 1741 2209 2834 440 888
722 1838 845 2846 41 332 53 486 61 783 l6 242 142 83 c296 174 569 382 790
603 329 329 495 614 563 961 26 134 26 525 -1 714 -83 601 -295 1233 -628
1869 -754 1436 -1921 2495 -3210 2911 -443 143 -816 206 -1312 219 l-245 7
-201 128 c-110 71 -300 184 -421 252 -122 68 -287 170 -368 226 -378 262 -758
476 -1170 658 -150 67 -446 183 -554 218 -31 10 -55 20 -55 21 0 2 51 159 114
349 345 1038 675 2266 825 3072 82 445 109 777 74 920 -10 41 -31 93 -48 116
-53 73 -154 103 -241 70z m18 -434 c-28 -632 -440 -2296 -934 -3767 -41 -121
-78 -225 -83 -230 -5 -6 -55 3 -127 23 -402 112 -898 193 -1375 226 l-186 13
61 147 c224 540 497 1050 882 1643 477 736 1117 1527 1528 1889 104 91 225
189 236 190 2 0 1 -60 -2 -134z m-2433 -4040 c1213 -98 2349 -507 3329 -1197
291 -205 656 -510 647 -539 -3 -10 -14 -39 -23 -64 -25 -66 -16 -200 21 -310
15 -46 60 -150 99 -231 119 -242 225 -411 812 -1298 257 -388 496 -763 659
-1033 189 -314 455 -796 473 -858 16 -54 51 -348 68 -559 29 -367 16 -897 -32
-1271 -187 -1463 -852 -2827 -1879 -3854 -1027 -1027 -2384 -1689 -3854 -1878
-1133 -147 -2363 36 -3438 510 -1425 628 -2540 1686 -3229 3063 -387 774 -609
1561 -690 2448 -18 195 -18 827 0 1018 33 359 42 405 99 520 237 474 604 1085
1140 1894 581 879 690 1053 810 1293 102 207 132 304 132 435 0 96 -3 110 -29
157 -24 42 -27 54 -16 65 119 113 434 362 638 505 419 293 944 573 1407 751
615 236 1237 379 1885 433 227 19 737 19 971 0z m-5174 -1864 c36 -10 40 -14
40 -47 0 -59 -50 -196 -120 -333 -109 -214 -205 -367 -721 -1147 -723 -1096
-1063 -1674 -1381 -2354 -481 -1026 -704 -1986 -656 -2825 17 -285 8 -317 -94
-363 -61 -28 -220 -29 -346 -3 -312 64 -736 265 -1098 519 -499 351 -828 745
-919 1100 -121 474 34 1300 395 2111 584 1310 1555 2376 2656 2917 517 254
1018 392 1585 435 155 12 605 5 659 -10z m10067 11 c822 -57 1579 -334 2273
-834 830 -597 1534 -1487 1994 -2519 362 -811 516 -1637 395 -2111 -91 -355
-420 -749 -919 -1100 -361 -254 -786 -455 -1097 -519 -127 -26 -285 -25 -346
3 -103 46 -111 78 -95 363 19 327 4 599 -54 958 -137 852 -486 1749 -1093
2809 -195 340 -467 772 -890 1412 -362 549 -486 739 -588 908 -191 315 -295
589 -234 615 54 22 424 31 654 15z m1544 -4604 c149 -391 269 -832 330 -1213
50 -320 65 -585 47 -895 -9 -174 -10 -250 -1 -296 35 -183 156 -309 348 -359
184 -49 513 -1 805 117 50 20 96 37 102 37 22 0 -14 -528 -62 -902 -222 -1749
-969 -3367 -2158 -4679 -185 -204 -528 -539 -734 -716 l-174 -150 -62 71
c-477 543 -1133 890 -1841 974 -274 32 -649 17 -918 -38 -1057 -215 -1911
-1009 -2207 -2052 -62 -218 -96 -441 -107 -705 l-8 -170 -31 -6 c-41 -8 -447
-8 -488 0 l-31 6 -7 185 c-29 790 -348 1489 -930 2033 -676 632 -1630 893
-2562 703 -157 -32 -427 -119 -574 -186 -364 -164 -693 -403 -962 -699 -51
-55 -97 -102 -103 -104 -25 -9 -449 375 -712 644 -998 1024 -1735 2306 -2110
3670 -182 660 -280 1281 -313 1994 -6 126 -5 150 8 145 8 -3 63 -25 123 -49
391 -157 731 -184 944 -78 70 35 153 123 187 196 45 99 50 157 36 414 -33 590
68 1223 304 1905 88 255 84 252 84 40 1 -542 94 -1200 247 -1749 326 -1169
931 -2212 1769 -3050 1490 -1487 3634 -2221 5702 -1952 1217 158 2386 643
3355 1390 436 336 872 772 1208 1208 923 1197 1443 2702 1443 4178 0 144 2
260 4 258 3 -3 25 -57 49 -120z m-9651 -8311 c956 -170 1734 -835 2039 -1744
184 -549 177 -1202 -17 -1549 -195 -348 -544 -509 -1250 -576 l-64 -6 24 92
c102 376 113 811 36 1316 -29 187 -87 425 -113 460 -54 74 -155 82 -213 16
-41 -47 -48 -79 -32 -145 46 -192 65 -290 83 -415 63 -434 54 -801 -26 -1122
-18 -73 -26 -125 -23 -159 l5 -51 -127 -7 c-70 -4 -299 -5 -510 -3 l-382 3
-18 89 c-95 473 -111 1071 -40 1538 27 182 58 337 89 449 14 50 25 109 25 131
0 146 -195 189 -261 57 -58 -116 -143 -572 -170 -919 -16 -204 -7 -730 16
-915 17 -135 53 -361 65 -410 l6 -25 -103 0 c-169 0 -630 21 -758 34 l-119 13
-13 37 c-7 20 -32 70 -56 111 -96 162 -177 381 -209 563 -24 130 -24 379 -1
509 24 133 73 279 134 405 58 117 64 159 31 213 -22 35 -77 68 -115 68 -37 0
-90 -28 -115 -60 -36 -45 -111 -206 -147 -313 -77 -231 -107 -482 -86 -712 23
-252 78 -448 197 -694 13 -29 22 -54 20 -57 -9 -8 -179 53 -275 99 -307 145
-481 394 -545 776 -35 210 -31 518 11 766 121 708 534 1341 1136 1742 277 183
617 322 945 384 189 36 260 41 533 38 214 -3 287 -8 393 -27z m6338 1 c271
-48 492 -121 731 -239 514 -255 922 -664 1180 -1185 293 -591 355 -1365 145
-1811 -105 -223 -258 -367 -504 -472 -149 -64 -145 -66 -93 45 125 271 180
539 171 832 -7 199 -27 323 -83 493 -77 237 -158 370 -236 389 -68 18 -152
-41 -166 -116 -6 -33 1 -57 56 -172 59 -125 98 -241 129 -385 8 -38 13 -138
14 -257 0 -164 -4 -212 -25 -309 -27 -128 -66 -243 -122 -367 l-37 -82 -78 73
c-188 179 -532 359 -807 423 l-99 22 -6 275 c-11 430 -66 845 -154 1138 -35
120 -96 171 -184 155 -41 -8 -95 -62 -106 -105 -4 -17 10 -95 36 -202 82 -333
119 -644 121 -1004 l1 -241 -26 -7 c-14 -4 -57 -14 -94 -21 -312 -58 -603
-275 -840 -626 -50 -73 -94 -133 -98 -132 -4 1 -21 2 -38 2 -30 0 -30 1 -19
31 12 33 13 28 -34 232 -89 377 -68 939 53 1419 24 96 25 146 5 186 -40 77
-150 94 -215 33 -69 -64 -156 -514 -178 -914 -18 -333 21 -704 100 -960 6 -19
1 -19 -108 -12 -235 15 -508 63 -675 117 -437 143 -653 400 -732 871 -24 145
-24 480 0 651 69 480 242 889 540 1276 85 109 304 330 417 420 375 297 820
485 1302 551 164 22 594 14 756 -15z m173 -3409 c249 -47 567 -213 741 -387
115 -115 146 -178 146 -300 0 -78 -4 -98 -32 -157 -71 -149 -219 -299 -451
-456 -131 -90 -155 -123 -141 -196 10 -56 26 -72 169 -169 409 -277 629 -597
586 -851 -23 -139 -112 -277 -259 -403 -140 -119 -287 -199 -433 -236 -82 -21
-271 -18 -363 5 -90 23 -262 103 -353 164 -175 118 -354 294 -505 494 -109
145 -121 157 -173 164 -28 3 -766 -153 -2591 -548 -1404 -303 -2572 -559
-2596 -568 -64 -24 -88 -59 -139 -205 -141 -404 -271 -641 -459 -839 -315
-332 -694 -370 -1186 -121 -300 152 -462 319 -504 522 -41 195 59 430 282 667
87 93 98 116 89 185 -7 51 -29 73 -171 170 -172 118 -351 318 -438 493 -68
137 -98 338 -71 480 44 234 181 481 379 680 233 236 495 307 807 221 295 -82
672 -353 985 -709 177 -200 191 -214 230 -224 28 -8 505 73 2526 430 1371 242
2506 445 2524 451 54 17 74 50 126 199 174 504 464 876 782 1005 139 56 326
71 493 39z"/>
<path d="M7975 20006 c-98 -6 -274 -34 -384 -62 -732 -183 -1311 -759 -1497
-1490 -42 -167 -57 -271 -63 -457 -29 -826 454 -1601 1210 -1941 289 -130 534
-183 855 -183 262 -1 447 30 682 113 302 106 555 266 783 493 509 508 717
1256 544 1954 -167 674 -650 1210 -1303 1450 -252 92 -567 139 -827 123z m367
-299 c448 -59 897 -319 1169 -679 385 -510 476 -1159 244 -1746 -238 -601
-760 -1012 -1413 -1113 -108 -17 -385 -17 -493 0 -610 94 -1120 472 -1368
1014 -110 241 -157 437 -167 699 -12 310 53 593 204 884 288 557 828 906 1483
957 66 5 241 -3 341 -16z"/>
<path d="M8526 18297 c-451 -125 -602 -677 -275 -1002 110 -109 275 -180 422
-180 147 0 313 70 419 177 329 330 179 887 -269 1003 -75 20 -229 21 -297 2z"/>
<path d="M12458 20006 c-97 -6 -273 -34 -383 -62 -920 -230 -1564 -1057 -1564
-2005 0 -730 381 -1401 1009 -1777 224 -135 493 -231 758 -271 160 -25 446
-25 600 0 921 147 1602 832 1750 1760 19 117 19 460 0 577 -123 772 -618 1384
-1335 1650 -255 95 -572 144 -835 128z m363 -299 c367 -49 753 -240 1017 -504
489 -489 653 -1220 419 -1867 -227 -628 -764 -1064 -1436 -1167 -115 -17 -369
-17 -483 0 -731 112 -1301 617 -1487 1318 -160 607 18 1267 463 1712 395 394
952 582 1507 508z"/>
<path d="M11803 18295 c-202 -54 -373 -226 -426 -430 -20 -79 -21 -213 0 -294
71 -277 343 -474 623 -452 357 29 619 372 543 712 -64 290 -300 482 -587 480
-53 0 -122 -7 -153 -16z"/>
<path d="M10020 14606 c-548 -41 -921 -173 -1156 -410 -199 -201 -289 -448
-290 -798 0 -167 13 -257 58 -411 191 -646 827 -1208 1506 -1333 99 -18 317
-15 415 5 139 30 281 81 428 154 238 118 431 260 616 452 261 272 421 564 485
888 22 111 24 357 5 476 -95 566 -492 868 -1267 961 -159 19 -629 28 -800 16z"/>
</g>
</svg>
