<?xml version="1.0" standalone="no"?>
<!DOCTYPE svg PUBLIC "-//W3C//DTD SVG 20010904//EN"
 "http://www.w3.org/TR/2001/REC-SVG-20010904/DTD/svg10.dtd">
<svg version="1.0" xmlns="http://www.w3.org/2000/svg"
 width="1276.502804pt" height="1193.404340pt" viewBox="0 0 1276.502804 1193.404340"
 preserveAspectRatio="xMidYMid meet">
<metadata>
Created by Potrace Professional 1.1m
</metadata>
<g transform="translate(-11.334551,1232.605897) rotate(-360.00) scale(0.095238,-0.095238)"
fill="#000000" stroke="none">
<path d="M6631 12940 c-290 -42 -458 -97 -693 -227 -80 -45 -211 -142 -306
-230 -328 -300 -541 -719 -620 -1222 -26 -162 -26 -534 -1 -693 68 -422 217
-800 452 -1144 71 -104 231 -289 341 -395 89 -86 344 -282 366 -282 4 0 22
-11 40 -25 49 -37 267 -140 382 -181 353 -126 757 -147 1099 -55 146 39 354
129 478 207 53 33 217 159 264 203 116 108 283 321 356 454 92 167 179 386
209 525 75 343 88 564 52 888 -50 456 -261 956 -563 1333 -39 49 -129 147
-199 217 -298 297 -663 499 -1067 592 -125 29 -160 33 -349 36 -115 2 -224 2
-241 -1z"/>
<path d="M10989 11481 c-111 -15 -235 -45 -337 -80 -84 -29 -275 -120 -317
-151 -18 -14 -36 -25 -40 -25 -14 0 -165 -119 -247 -196 -107 -99 -175 -180
-250 -298 -32 -49 -66 -102 -77 -118 -10 -15 -19 -31 -19 -33 0 -3 -18 -43
-40 -88 -136 -279 -200 -604 -188 -958 9 -269 41 -450 123 -694 88 -265 201
-478 395 -749 137 -192 424 -456 650 -597 101 -63 256 -143 350 -181 646 -262
1329 -185 1831 206 114 88 281 264 348 366 96 146 103 157 141 232 99 193 169
433 202 690 16 121 7 474 -15 601 -61 351 -156 612 -331 908 -195 331 -497
651 -781 827 -466 289 -930 402 -1398 338z m343 -1346 c56 -30 137 -100 170
-149 37 -53 110 -269 118 -350 7 -67 20 -74 77 -44 66 34 221 59 336 55 97 -3
117 -7 165 -34 68 -38 161 -131 196 -199 53 -99 26 -272 -62 -406 -93 -140
-267 -290 -372 -321 -32 -9 -72 -24 -89 -32 -49 -25 -194 -57 -274 -61 -40 -2
-120 -11 -178 -20 -146 -23 -200 -21 -263 8 -50 23 -132 105 -207 207 -34 45
-102 251 -102 306 0 23 -10 80 -22 128 -44 180 -79 466 -70 576 7 74 44 156
101 220 105 118 356 180 476 116z"/>
<path d="M2725 10909 c-378 -70 -737 -275 -978 -558 -104 -122 -129 -155 -173
-234 -121 -219 -175 -349 -228 -548 -29 -108 -38 -152 -50 -250 -3 -23 -8 -48
-10 -55 -12 -39 -16 -321 -6 -444 40 -470 189 -873 472 -1279 156 -224 468
-510 689 -633 262 -146 517 -233 767 -263 113 -13 424 -7 488 10 20 5 63 15
95 22 221 49 414 142 658 317 71 50 219 205 303 317 43 57 78 105 78 107 0 2
18 33 40 70 34 57 99 186 128 256 5 11 26 70 46 131 231 694 86 1529 -376
2153 -102 138 -157 202 -263 304 -240 231 -482 384 -791 498 -78 29 -287 78
-380 90 -137 16 -387 11 -509 -11z"/>
<path d="M7308 7959 c-90 -4 -186 -11 -215 -15 -458 -63 -794 -181 -1108 -391
-111 -74 -118 -79 -178 -129 -198 -164 -394 -381 -526 -583 -133 -203 -159
-254 -268 -533 -50 -129 -94 -243 -99 -255 -45 -109 -182 -521 -263 -787 -33
-110 -123 -468 -152 -604 -19 -93 -40 -214 -62 -373 -42 -289 -73 -493 -117
-750 -42 -246 -66 -403 -83 -541 -25 -202 -32 -588 -14 -782 33 -356 225 -751
532 -1093 117 -130 348 -328 483 -412 241 -151 496 -247 764 -287 146 -22 395
-14 534 17 280 62 494 164 756 359 232 171 374 363 484 650 75 198 131 484
131 676 0 117 15 248 42 352 23 91 89 260 111 284 8 9 15 21 15 25 0 14 75
113 130 172 112 119 273 208 426 234 149 26 374 -1 530 -63 12 -5 33 -13 48
-19 45 -18 234 -112 262 -130 170 -111 249 -166 319 -224 246 -200 676 -314
1172 -311 426 2 758 94 1050 290 70 47 111 87 252 251 59 68 141 228 271 525
68 156 134 365 164 523 117 598 -81 1118 -634 1665 -119 118 -425 384 -563
491 -30 22 -112 88 -183 146 -71 58 -155 123 -188 146 -32 22 -93 69 -134 102
-41 34 -78 62 -82 62 -4 0 -43 26 -86 59 -44 33 -105 77 -135 97 -31 21 -97
66 -147 101 -106 73 -194 131 -246 163 -21 12 -66 40 -100 62 -53 35 -149 93
-315 192 -18 10 -46 26 -63 35 -18 9 -55 30 -84 46 -62 36 -429 220 -503 252
-28 12 -77 32 -110 44 -33 12 -78 30 -101 40 -119 53 -320 104 -520 132 -612
84 -866 103 -1197 89z"/>
<path d="M1626 6400 c-413 -67 -771 -271 -1037 -588 -90 -109 -186 -254 -239
-363 -123 -254 -180 -442 -218 -726 -22 -164 -15 -503 15 -670 82 -468 253
-837 565 -1220 19 -24 137 -128 262 -233 214 -178 237 -195 370 -260 305 -150
515 -202 819 -201 270 0 492 53 727 172 89 45 244 142 292 184 242 210 366
367 493 624 107 214 153 357 200 630 19 106 24 173 24 357 1 225 -4 282 -46
493 -104 526 -384 1007 -787 1351 -259 221 -558 369 -877 435 -139 28 -433 36
-563 15z"/>
</g>
</svg>
