<?xml version="1.0" standalone="no"?>
<!DOCTYPE svg PUBLIC "-//W3C//DTD SVG 20010904//EN"
 "http://www.w3.org/TR/2001/REC-SVG-20010904/DTD/svg10.dtd">
<svg version="1.0" xmlns="http://www.w3.org/2000/svg"
 width="109.886958pt" height="112.661585pt" viewBox="0 0 109.886958 112.661585"
 preserveAspectRatio="xMidYMid meet">
<metadata>
Created by Potrace Professional 1.1m
</metadata>
<g transform="translate(-236.113042,213.022582) rotate(-360.00) scale(0.095238,-0.095238)"
fill="#000000" stroke="none">
<path d="M2801 2220 c-65 -35 -91 -157 -50 -241 39 -81 78 -110 151 -110 45 0
55 4 86 37 103 109 19 332 -124 330 -19 0 -47 -7 -63 -16z m112 -63 c30 -20
59 -86 59 -137 0 -49 -51 -104 -87 -93 -34 11 -61 37 -78 76 -46 108 23 209
106 154z"/>
<path d="M3183 2219 c-104 -52 -135 -236 -52 -319 26 -26 39 -31 84 -31 99 0
165 81 166 203 0 132 -91 200 -198 147z m104 -56 c54 -29 48 -149 -10 -204
-76 -73 -156 -1 -126 114 21 79 81 119 136 90z"/>
<path d="M2520 1986 c-95 -95 -12 -290 122 -290 40 0 52 5 78 33 60 68 50 166
-26 242 -40 40 -50 45 -95 45 -40 0 -55 -5 -79 -30z m134 -58 c51 -46 56 -144
9 -165 -70 -32 -159 108 -109 171 26 33 59 31 100 -6z"/>
<path d="M3432 1985 c-48 -40 -72 -90 -72 -151 0 -65 14 -98 55 -123 92 -58
218 41 218 173 0 87 -39 131 -116 132 -37 0 -55 -7 -85 -31z m135 -64 c26 -54
-35 -167 -89 -167 -23 0 -49 26 -59 59 -9 29 21 105 50 125 34 24 83 15 98
-17z"/>
<path d="M2986 1816 c-138 -27 -245 -136 -305 -311 -23 -67 -28 -102 -29 -187
-1 -96 2 -111 29 -167 51 -104 134 -124 264 -64 29 14 66 33 82 44 27 18 30
18 57 0 94 -61 200 -90 258 -71 84 28 125 112 125 260 -1 248 -147 460 -343
496 -69 12 -76 12 -138 0z m194 -83 c137 -70 223 -230 225 -420 2 -186 -73
-239 -229 -161 -29 15 -55 32 -59 38 -4 6 13 34 38 63 58 66 111 170 118 232
5 42 2 50 -26 78 -44 45 -79 51 -140 25 -50 -21 -51 -21 -90 -1 -47 24 -66 24
-114 4 -26 -10 -42 -27 -53 -53 -14 -34 -14 -44 0 -92 18 -63 78 -166 122
-212 17 -18 27 -37 23 -44 -12 -20 -110 -65 -155 -72 -59 -10 -94 20 -117 98
-32 111 3 286 81 399 40 60 110 115 170 134 57 19 153 11 206 -16z m-189 -205
c16 -8 35 -22 43 -31 18 -22 24 -21 59 10 38 33 70 42 98 27 27 -15 27 -43 2
-104 -25 -63 -114 -180 -136 -180 -20 0 -93 88 -125 152 -33 67 -38 99 -17
122 21 23 38 24 76 4z"/>
</g>
</svg>

