<?xml version="1.0" standalone="no"?>
<!DOCTYPE svg PUBLIC "-//W3C//DTD SVG 20010904//EN"
 "http://www.w3.org/TR/2001/REC-SVG-20010904/DTD/svg10.dtd">
<svg version="1.0" xmlns="http://www.w3.org/2000/svg"
 width="624.921004pt" height="537.818914pt" viewBox="0 0 624.921004 537.818914"
 preserveAspectRatio="xMidYMid meet">
<metadata>
Created by Potrace Professional 1.1m
</metadata>
<g transform="translate(-0.544092,581.830705) rotate(-360.00) scale(0.095238,-0.095238)"
fill="#000000" stroke="none">
<path d="M2074 6095 c-142 -36 -250 -96 -365 -204 -164 -153 -287 -391 -341
-657 -29 -146 -26 -437 6 -581 91 -408 314 -698 632 -817 72 -27 89 -29 225
-29 135 0 153 3 220 29 122 48 205 100 297 188 164 158 271 356 329 607 61
267 41 568 -55 833 -90 249 -274 469 -474 567 -53 26 -127 55 -164 64 -82 19
-237 19 -310 0z m263 -178 c113 -29 209 -84 297 -172 297 -293 383 -846 200
-1275 -98 -232 -235 -378 -421 -452 -310 -123 -650 81 -805 484 -105 273 -107
622 -6 891 98 259 265 444 459 507 112 36 182 40 276 17z"/>
<path d="M4079 6096 c-131 -35 -228 -85 -326 -167 -260 -221 -406 -570 -406
-973 0 -387 123 -701 364 -932 91 -88 173 -140 295 -188 67 -26 85 -29 220
-29 140 0 151 1 234 33 116 44 196 94 289 181 161 151 283 385 340 652 28 135
26 440 -5 582 -88 410 -324 713 -637 821 -101 34 -279 44 -368 20z m274 -185
c505 -129 743 -933 449 -1515 -95 -189 -245 -330 -411 -387 -109 -38 -243 -34
-351 10 -230 94 -403 324 -481 643 -22 86 -25 126 -25 294 0 223 18 321 89
486 57 133 100 200 183 286 87 90 164 141 258 171 125 40 173 42 289 12z"/>
<path d="M667 4425 c-243 -61 -452 -255 -568 -529 -69 -166 -94 -298 -93 -515
0 -161 3 -198 27 -299 63 -263 208 -500 379 -616 137 -94 223 -123 376 -132
92 -5 124 -2 199 17 385 100 651 523 651 1035 0 487 -242 896 -604 1020 -103
36 -267 44 -367 19z m231 -173 c117 -22 202 -68 298 -160 278 -270 345 -819
146 -1210 -116 -229 -320 -372 -530 -372 -61 0 -180 33 -234 65 -221 131 -356
375 -390 704 -33 314 77 648 275 831 98 91 216 142 351 151 12 1 50 -3 84 -9z"/>
<path d="M5591 4421 c-327 -86 -577 -405 -641 -819 -102 -664 278 -1271 796
-1271 376 0 685 292 794 751 24 101 27 138 27 299 1 116 -4 205 -13 242 -38
158 -51 201 -86 283 -143 334 -415 536 -719 535 -47 0 -117 -9 -158 -20z m236
-169 c241 -39 443 -258 526 -571 92 -345 10 -749 -197 -973 -86 -92 -167 -145
-269 -175 -100 -28 -157 -29 -254 -4 -115 30 -211 92 -296 191 -244 286 -292
803 -109 1163 52 100 70 127 128 188 90 95 188 152 298 177 80 17 91 17 173 4z"/>
<path d="M3087 3391 c-652 -49 -1172 -341 -1474 -829 -34 -55 -78 -123 -98
-152 -110 -163 -137 -208 -187 -314 -110 -234 -156 -432 -156 -673 1 -317 87
-545 281 -735 234 -230 511 -266 835 -109 61 30 203 110 316 178 113 68 252
147 310 175 98 49 111 52 210 59 58 3 157 2 220 -3 114 -9 118 -10 221 -66 58
-32 192 -114 299 -182 336 -215 487 -278 666 -278 105 0 176 19 286 74 105 53
222 158 292 263 271 404 234 1038 -89 1531 -32 50 -77 123 -100 164 -209 377
-608 683 -1060 813 -250 72 -532 103 -772 84z m513 -209 c124 -24 302 -76 401
-118 330 -141 610 -388 767 -675 25 -46 65 -113 90 -148 97 -139 182 -342 225
-541 35 -160 33 -383 -5 -527 -53 -205 -166 -367 -323 -462 -88 -53 -135 -65
-235 -64 -144 2 -253 52 -593 270 -273 176 -381 230 -491 247 -96 15 -348 15
-428 1 -81 -15 -235 -92 -472 -236 -465 -281 -605 -317 -820 -210 -58 28 -94
57 -156 122 -93 99 -143 194 -180 345 -46 185 -29 454 44 663 42 123 145 323
210 409 33 43 76 107 95 141 36 63 46 78 102 163 16 25 73 90 126 145 274 283
632 448 1083 499 107 12 443 -2 560 -24z"/>
</g>
</svg>
