<?xml version="1.0" standalone="no"?>
<!DOCTYPE svg PUBLIC "-//W3C//DTD SVG 20010904//EN"
 "http://www.w3.org/TR/2001/REC-SVG-20010904/DTD/svg10.dtd">
<svg version="1.0" xmlns="http://www.w3.org/2000/svg"
 width="1035.974996pt" height="1299.873692pt" viewBox="0 0 1035.974996 1299.873692"
 preserveAspectRatio="xMidYMid meet">
<metadata>
Created by Potrace Professional 1.1m
</metadata>
<g transform="translate(-0.037459,1299.835340) rotate(-360.00) scale(0.095238,-0.095238)"
fill="#000000" stroke="none">
<path d="M5618 13639 c-564 -73 -1337 -479 -2073 -1088 -68 -57 -135 -109
-147 -115 -32 -18 -256 -45 -472 -57 -283 -15 -750 13 -1193 74 -664 90 -767
100 -1035 99 -135 0 -195 -5 -246 -18 -226 -61 -345 -184 -405 -421 -13 -53
-29 -147 -35 -210 -15 -146 -15 -496 -1 -638 24 -241 112 -572 204 -772 109
-236 274 -431 431 -508 262 -130 538 -29 682 248 41 80 68 188 68 276 1 143
-58 403 -142 631 -20 54 -34 100 -32 103 2 2 22 -4 45 -13 76 -33 313 -87 432
-100 65 -7 179 -11 255 -8 l136 5 -25 -28 c-334 -367 -697 -889 -898 -1289
-371 -740 -447 -1286 -248 -1801 96 -249 295 -524 517 -716 l84 -72 -63 -132
c-259 -547 -444 -1115 -590 -1810 -66 -312 -101 -518 -174 -1005 -20 -132 -63
-553 -78 -756 -59 -795 -46 -1599 41 -2541 9 -96 19 -194 22 -219 l6 -46 91
-42 c339 -157 801 -296 1351 -407 1587 -321 3685 -351 5471 -78 133 20 274 43
315 51 40 8 116 22 168 31 282 50 801 175 1113 268 309 92 713 237 904 326 38
17 70 31 73 32 2 0 68 30 146 68 l142 69 0 275 c0 313 -14 722 -37 1136 -18
319 -45 709 -53 756 -2 18 -14 138 -26 268 -114 1265 -391 2596 -736 3539 -60
163 -189 484 -213 530 -21 41 -21 60 3 90 35 46 105 181 142 277 148 384 148
766 0 1339 -111 428 -311 897 -590 1381 -46 80 -83 148 -81 150 1 1 53 -11
115 -29 206 -58 550 -116 687 -116 30 0 34 -3 27 -18 -33 -77 -104 -304 -122
-393 -27 -134 -32 -381 -10 -471 62 -244 262 -366 536 -327 220 32 402 157
546 375 240 363 289 871 169 1730 -57 405 -67 440 -136 483 -47 29 -133 30
-315 5 -531 -74 -1144 -29 -1749 128 -372 96 -779 256 -1036 407 -51 30 -117
89 -247 223 -505 520 -950 810 -1336 871 -80 13 -280 12 -378 0z m374 -194
c335 -70 742 -343 1174 -788 l135 -140 -2 -113 c-3 -135 16 -240 67 -374 124
-321 392 -637 757 -893 84 -59 321 -196 339 -196 18 0 237 -379 351 -606 411
-821 555 -1498 436 -2050 -97 -449 -384 -824 -830 -1086 -388 -227 -936 -408
-1615 -531 -863 -157 -1947 -200 -2754 -110 -287 32 -674 107 -947 184 -63 18
-120 34 -126 35 -6 2 -19 6 -28 10 -10 5 -60 22 -111 38 -528 171 -1024 468
-1364 820 -137 141 -175 192 -247 325 -156 287 -196 674 -113 1086 78 388 277
838 544 1229 130 191 396 527 619 781 l96 110 144 49 c587 198 1011 627 1011
1023 l0 74 123 101 c436 358 792 596 1153 772 280 136 513 215 737 250 130 20
353 20 451 0z m-4632 -1086 c144 -17 331 -40 415 -52 760 -105 1214 -119 1563
-47 l36 7 -7 -44 c-16 -97 -111 -241 -240 -364 -142 -135 -276 -225 -470 -318
-164 -78 -317 -129 -496 -166 -127 -26 -162 -28 -371 -29 -239 0 -313 8 -514
57 -136 34 -138 35 -179 123 -94 203 -313 539 -352 539 -26 0 41 -204 173
-525 123 -299 143 -353 196 -520 90 -290 113 -420 94 -542 -26 -172 -110 -278
-257 -328 -264 -89 -503 142 -631 611 -39 141 -82 408 -99 616 -13 156 -14
542 -1 640 20 153 69 264 133 302 38 22 172 57 268 71 118 17 456 2 739 -31z
m6455 -120 c115 -56 210 -101 213 -101 2 0 33 -14 70 -31 225 -105 473 -192
706 -247 440 -104 852 -123 1392 -62 130 14 298 39 352 53 26 6 19 33 68 -289
56 -369 73 -554 74 -810 1 -259 -20 -423 -79 -602 -50 -151 -102 -239 -198
-336 -67 -68 -98 -90 -178 -128 -174 -82 -300 -88 -377 -18 -54 49 -67 75 -83
170 -34 206 43 554 222 1009 67 170 204 445 250 500 18 22 33 46 33 53 0 23
-37 15 -80 -17 -100 -73 -213 -219 -329 -422 l-74 -128 -82 2 c-595 16 -1355
352 -1832 808 -173 166 -304 355 -350 503 -18 57 -31 192 -22 217 8 20 9 19
304 -124z m1394 -5179 c544 -1351 850 -3202 899 -5435 l7 -323 -57 -25 c-379
-166 -983 -360 -1490 -477 -898 -209 -1826 -328 -2884 -370 -343 -14 -1284 -8
-1552 11 -341 23 -718 53 -840 68 -390 47 -501 62 -677 90 -614 99 -1219 250
-1605 401 -60 23 -111 48 -113 54 -2 7 -11 137 -20 290 -106 1763 72 3419 508
4741 102 311 187 528 301 775 42 92 79 169 82 172 2 2 54 -25 113 -61 169
-102 382 -205 631 -308 179 -73 663 -225 806 -252 14 -3 64 -14 110 -26 287
-70 786 -144 1140 -169 199 -14 782 -13 1052 0 178 10 381 26 696 58 286 29
726 108 1050 190 673 169 1271 441 1659 754 46 37 87 64 92 60 4 -5 46 -102
92 -218z"/>
<path d="M4846 12419 c-204 -188 -527 -402 -1008 -668 -116 -64 -216 -120
-224 -125 -8 -4 -11 -15 -7 -27 7 -16 16 -18 67 -12 448 50 821 197 1055 414
107 99 198 245 227 363 11 45 11 59 -1 84 -8 16 -20 31 -26 33 -7 2 -44 -26
-83 -62z"/>
<path d="M5967 12471 c-45 -57 3 -205 115 -356 190 -259 601 -455 1084 -518
124 -16 151 -12 139 18 -3 8 -87 58 -187 113 -475 257 -860 510 -1045 685 -77
74 -89 80 -106 58z"/>
<path d="M6384 11718 c-109 -20 -251 -94 -316 -165 -164 -176 -201 -431 -97
-652 30 -62 126 -171 192 -217 24 -16 81 -43 127 -60 108 -38 243 -41 348 -9
203 63 351 227 394 439 55 268 -107 546 -372 638 -80 28 -205 40 -276 26z m87
-136 c15 -5 31 -24 38 -44 21 -60 -31 -106 -99 -89 -52 13 -53 106 -1 131 29
14 32 14 62 2z m268 -101 c51 -21 85 -53 108 -104 28 -60 25 -118 -9 -185 -24
-47 -39 -62 -86 -86 -49 -25 -67 -29 -109 -25 -119 14 -204 115 -194 228 14
138 161 226 290 172z"/>
<path d="M4300 11707 c-335 -59 -544 -371 -462 -687 91 -348 495 -520 818
-349 283 151 380 510 211 779 -114 181 -363 293 -567 257z m131 -136 c44 -44
12 -126 -48 -126 -32 0 -78 43 -78 74 0 30 46 73 78 73 15 0 36 -9 48 -21z
m224 -120 c96 -46 140 -183 88 -279 -103 -193 -395 -124 -396 93 0 80 65 174
139 199 46 15 120 10 169 -13z"/>
<path d="M5234 10400 c-674 -45 -1405 -150 -1879 -269 -379 -95 -633 -217
-678 -324 -18 -43 -8 -155 22 -242 132 -390 465 -757 1050 -1156 332 -228 665
-395 1015 -511 187 -62 378 -111 530 -136 l113 -18 4 -147 c4 -124 9 -161 32
-233 16 -48 33 -89 38 -93 33 -20 65 132 67 327 l1 130 135 0 c276 0 466 51
758 203 236 123 406 250 604 447 286 286 597 782 712 1135 55 168 71 370 38
480 -32 109 -166 189 -443 265 -228 62 -530 107 -927 138 -236 18 -942 21
-1192 4z m1008 -184 c529 -30 1011 -119 1218 -225 49 -25 64 -39 70 -63 23
-90 -69 -395 -193 -641 -89 -173 -240 -410 -363 -567 -85 -108 -320 -338 -421
-413 -172 -128 -398 -245 -431 -225 -22 14 -69 156 -91 276 -23 130 -23 356
-1 461 33 148 104 230 186 216 20 -4 54 -17 76 -29 46 -25 55 -21 45 23 -17
78 -114 159 -193 159 -117 0 -235 -136 -282 -323 -36 -146 -19 -542 35 -779 8
-37 11 -71 7 -76 -31 -30 -367 -39 -529 -15 -214 33 -593 144 -813 239 -164
72 -151 49 -112 194 118 447 74 764 -122 864 -106 53 -209 8 -254 -112 -22
-58 -26 -94 -15 -123 11 -27 24 -19 47 26 61 121 214 73 252 -78 29 -116 -15
-434 -81 -583 l-19 -44 -158 91 c-488 283 -860 581 -1071 860 -69 92 -146 251
-162 335 -13 69 -13 71 11 97 159 170 1377 403 2372 455 240 12 788 12 992 0z"/>
<path d="M5331 7182 c-81 -25 -165 -92 -216 -171 -85 -132 -111 -341 -42 -331
17 2 34 24 60 76 48 94 136 183 206 208 120 42 248 13 338 -77 54 -53 109
-151 124 -217 9 -43 21 -50 53 -30 47 31 65 184 32 277 -74 211 -336 336 -555
265z"/>
<path d="M8245 6150 c37 -98 138 -412 155 -480 32 -127 40 -362 17 -486 -57
-303 -219 -590 -526 -933 -405 -452 -882 -758 -1500 -963 l-113 -37 -270 44
c-148 24 -377 57 -508 73 l-238 28 -12 69 c-23 136 -27 143 -82 165 -68 26
-236 24 -369 -5 -308 -67 -585 -219 -834 -458 -70 -67 -56 -66 -201 -10 -393
153 -755 425 -994 746 -269 362 -456 853 -515 1352 -9 72 -18 116 -27 118 -7
3 -23 -17 -36 -46 -21 -45 -24 -67 -23 -203 2 -337 88 -704 235 -998 195 -391
492 -743 830 -986 95 -69 302 -178 410 -216 43 -16 80 -30 81 -31 2 -1 -18
-47 -44 -101 -65 -135 -94 -254 -71 -290 5 -8 39 27 94 96 367 456 921 824
1243 825 l58 0 18 -81 c53 -255 56 -584 6 -802 l-11 -49 -81 -7 c-182 -16
-348 -69 -482 -153 l-67 -42 -99 49 c-83 41 -110 49 -175 53 -55 4 -82 1 -96
-10 -18 -13 -6 -27 151 -182 193 -190 318 -326 401 -437 72 -97 134 -200 134
-223 0 -22 -67 -121 -148 -219 -84 -101 -334 -364 -346 -364 -5 0 -12 10 -16
23 -4 13 -58 125 -120 250 -62 124 -124 251 -137 283 -30 71 -30 71 -42 52
-28 -45 -1 -339 48 -521 14 -52 26 -103 26 -111 0 -33 -260 -79 -497 -89
l-167 -6 7 135 c16 300 50 785 64 926 9 83 13 155 10 161 -3 5 -13 10 -20 10
-23 0 -117 -91 -158 -152 -28 -43 -42 -56 -56 -52 -64 22 -328 159 -406 212
-456 306 -786 772 -991 1399 -181 552 -151 1344 79 2053 21 66 36 123 32 126
-11 12 -69 -27 -112 -76 -113 -128 -253 -545 -312 -927 -26 -168 -26 -582 0
-767 33 -232 105 -549 166 -726 70 -206 203 -452 357 -661 107 -146 341 -386
476 -489 189 -143 433 -271 609 -320 62 -17 90 -29 90 -40 0 -9 -10 -106 -21
-216 -12 -110 -26 -315 -33 -457 -11 -233 -10 -261 5 -291 32 -61 64 -69 248
-62 209 8 464 53 628 109 l56 19 46 -45 c55 -51 87 -57 152 -23 60 30 210 159
332 284 241 249 403 478 403 571 -1 81 -114 265 -296 481 l-104 123 29 11
c108 41 285 86 395 99 71 9 144 19 162 22 32 5 35 3 35 -24 -1 -38 47 -306 67
-380 9 -31 20 -61 25 -66 47 -47 260 -18 564 76 34 10 74 22 87 26 19 5 -16
-53 -160 -267 -127 -189 -184 -284 -184 -303 0 -92 202 -377 347 -491 154
-121 345 -189 562 -201 111 -6 117 -6 138 17 20 21 55 139 55 183 0 26 13 27
100 12 267 -48 648 18 756 131 26 28 31 44 48 177 29 231 45 534 38 739 -3
102 -2 188 2 191 5 3 27 9 50 12 77 12 287 88 406 146 340 166 635 433 875
793 306 460 491 968 550 1512 18 159 15 487 -4 621 -60 407 -213 714 -430 861
-54 37 -66 41 -87 31 -34 -15 -32 -39 9 -101 255 -383 339 -722 302 -1223 -32
-437 -137 -837 -297 -1134 -184 -341 -360 -586 -568 -793 -166 -165 -294 -258
-480 -349 -95 -47 -365 -146 -372 -137 -1 2 -20 33 -42 70 -48 80 -127 162
-187 192 -42 21 -115 31 -128 18 -4 -4 5 -30 19 -58 96 -190 153 -602 140
-1006 -7 -206 -22 -338 -44 -391 -10 -23 -30 -41 -67 -60 -92 -47 -171 -62
-321 -60 -164 1 -211 10 -208 39 1 11 10 89 20 173 23 188 26 515 6 561 l-14
32 -15 -26 c-47 -85 -213 -703 -231 -864 l-7 -60 -65 0 c-122 0 -275 76 -413
204 -81 75 -167 187 -183 239 -12 41 -8 48 155 302 132 206 288 489 323 584
41 115 56 264 28 291 -16 16 -59 -33 -145 -164 -35 -53 -71 -107 -80 -119 -15
-21 -45 -34 -279 -121 -127 -47 -291 -92 -352 -96 l-42 -2 -17 105 c-39 231
-64 520 -64 751 0 124 3 240 7 257 l7 33 97 -14 c200 -27 672 -78 781 -84 108
-6 118 -5 212 27 55 18 114 40 132 48 17 7 79 34 137 58 169 72 452 217 584
299 409 255 778 612 1056 1024 96 141 167 292 212 446 79 273 51 577 -85 919
-50 126 -77 173 -126 220 -51 50 -145 85 -132 50z"/>
</g>
</svg>
