<?xml version="1.0" standalone="no"?>
<!DOCTYPE svg PUBLIC "-//W3C//DTD SVG 20010904//EN"
 "http://www.w3.org/TR/2001/REC-SVG-20010904/DTD/svg10.dtd">
<svg version="1.0" xmlns="http://www.w3.org/2000/svg"
 width="624.899172pt" height="429.104527pt" viewBox="0 0 624.899172 429.104527"
 preserveAspectRatio="xMidYMid meet">
<metadata>
Created by Potrace Professional 1.1m
</metadata>
<g transform="translate(-0.513804,527.643789) rotate(-360.00) scale(0.095238,-0.095238)"
fill="#000000" stroke="none">
<path d="M4421 5537 c-76 -16 -163 -69 -237 -143 -115 -117 -158 -225 -170
-419 l-6 -112 -66 6 c-239 22 -455 -164 -490 -421 -41 -311 159 -648 446 -749
46 -17 51 -21 46 -45 -3 -14 -15 -69 -27 -121 -27 -118 -31 -322 -7 -431 39
-189 151 -308 320 -341 101 -20 191 -7 420 60 l206 61 153 0 c141 0 160 -2
262 -33 304 -92 304 -92 425 -93 104 0 122 3 175 28 108 51 187 144 228 272
37 115 32 387 -9 526 -26 85 -26 104 -4 104 10 0 54 17 97 39 101 50 232 176
289 277 72 130 93 208 95 350 1 113 -2 134 -28 205 -74 202 -263 329 -464 312
l-66 -5 -6 117 c-7 117 -18 168 -59 262 -44 102 -145 204 -252 257 -78 38 -82
38 -200 38 -101 0 -131 -4 -181 -24 -102 -40 -190 -108 -274 -210 l-29 -35
-23 30 c-80 102 -163 167 -273 211 -51 21 -87 27 -165 30 -55 1 -112 0 -126
-3z m226 -285 c90 -46 162 -133 203 -245 29 -79 34 -113 34 -206 0 -140 -61
-257 -163 -309 -50 -26 -148 -23 -207 5 -140 68 -240 256 -240 449 0 259 179
406 373 306z m962 -3 c163 -108 184 -394 46 -608 -73 -112 -162 -168 -267
-168 -94 1 -177 61 -224 163 -21 45 -24 69 -24 178 0 109 3 135 25 189 34 84
69 138 120 187 102 98 230 121 324 59z m-1571 -670 c143 -67 257 -248 257
-408 0 -97 -52 -190 -129 -229 -72 -38 -192 -12 -283 60 -152 120 -222 364
-144 501 59 106 175 135 299 76z m2170 -2 c154 -102 128 -390 -50 -555 -146
-134 -328 -128 -401 14 -35 69 -41 143 -20 227 25 98 54 151 121 223 112 122
250 158 350 91z m-1063 -300 c229 -66 509 -327 631 -589 66 -139 88 -238 88
-391 0 -153 -17 -215 -73 -257 -51 -40 -122 -36 -303 17 -291 85 -303 87 -474
87 -162 1 -251 -14 -415 -67 -137 -45 -219 -64 -280 -64 -54 0 -70 5 -96 27
-63 52 -87 186 -66 359 40 324 274 653 584 821 154 83 260 98 404 57z"/>
<path d="M956 3805 c-85 -23 -159 -70 -232 -148 -101 -108 -144 -218 -154
-397 l-6 -116 -90 0 c-208 2 -366 -110 -440 -309 -25 -69 -29 -93 -29 -199 1
-99 5 -135 25 -195 51 -151 137 -277 253 -369 59 -47 175 -108 205 -108 21 0
20 -20 -5 -104 -41 -139 -46 -411 -9 -526 39 -122 116 -215 217 -265 67 -33
75 -35 191 -34 109 0 133 4 252 40 226 69 266 79 349 89 51 6 112 6 163 0 91
-11 82 -9 312 -78 161 -49 174 -51 294 -51 118 0 130 2 182 29 121 63 195 163
229 309 24 103 21 317 -7 438 -36 161 -35 152 -15 153 43 0 177 78 251 148
218 204 297 540 181 774 -38 78 -131 175 -198 209 -77 38 -174 58 -247 51
l-66 -6 0 79 c0 347 -221 604 -519 603 -85 -1 -143 -15 -232 -57 -71 -34 -172
-120 -224 -188 l-22 -30 -29 35 c-103 122 -220 201 -340 229 -65 15 -173 12
-240 -6z m244 -271 c69 -33 139 -112 188 -213 l45 -92 0 -131 c0 -115 -3 -139
-24 -185 -101 -223 -362 -214 -498 17 -130 221 -106 491 53 597 66 44 154 46
236 7z m940 6 c56 -29 96 -72 127 -138 22 -47 28 -77 31 -162 3 -90 0 -115
-25 -191 -50 -154 -148 -260 -271 -292 -52 -13 -65 -13 -117 1 -208 60 -264
403 -103 639 51 76 67 90 140 131 70 38 156 43 218 12z m-1547 -679 c23 -11
76 -53 117 -95 78 -78 107 -132 132 -249 22 -103 -17 -228 -86 -279 -116 -85
-309 -15 -416 152 -120 188 -95 416 53 483 43 20 147 13 200 -12z m2176 -8
c62 -43 90 -101 95 -196 10 -175 -98 -355 -257 -428 -258 -118 -426 171 -259
449 108 181 298 260 421 175z m-1056 -303 c119 -40 233 -113 356 -226 241
-223 377 -542 352 -822 -14 -150 -62 -210 -168 -211 -51 0 -233 43 -313 73
-52 20 -212 53 -294 62 -144 15 -263 -5 -580 -98 -84 -24 -147 -37 -191 -37
-59 0 -68 4 -101 35 -43 40 -59 87 -67 199 -24 306 160 664 453 883 215 161
376 203 553 142z"/>
</g>
</svg>
